<?xml version="1.0" standalone="no"?>
<svg xmlns="http://www.w3.org/2000/svg" viewBox="0 0 97.538 112.627" width="97.538" height="112.627"><polygon fill="none" stroke="#ffffff" stroke-width="3" points="96.038,28.90675 96.038,83.72025 48.769,111.127 1.5,83.72025 1.5,28.90675 48.769,1.5"></polygon><g fill="#ffffff" color="#ffffff" transform="translate(26.769 22.5) scale(0.8461539)"><svg width="52.0" height="52.0" x="0.0" y="0.0" viewBox="0 0 52 52"><path fill="currentColor" fill-rule="evenodd" d="M48.231 30.94l-.26 1.04c0 .173-.087.173-.087.173v-.173c.867-7.973-10.4-12.566-22.966-12.566-2.514 0-5.2.173-7.714.606-3.986.607-7.02 1.56-9.186 2.6.26 2.774 2.773 3.12 4.333 3.12h.52c2.253-.086 5.027-.52 6.413-.693.174 0 .434-.087.52-.087 1.56-.173 3.207-.346 4.767-.346 7.02 0 14.04 1.905 17.767 6.153 3.639 4.16 2.426 9.013-2.514 13.26-4.506 3.813-10.314 4.592-13.347 4.767h-.693c-3.293 0-6.153-.954-6.673-1.214-4.853-1.906-4.16-5.113-1.473-6.846 2.166-1.387 4.853-1.994 7.366-1.994 4.506 0 8.494 1.907 8.06 4.42-.26 1.734-2.34 2.687-3.987 2.687-.433 0-.867-.087-1.213-.261l-.087-.086c-.086-.173-.173-.26-.606-.433a5.446 5.446 0 0 0-1.647-.26c-1.56 0-3.206.607-3.64 1.473-.26.606.26 1.04.954 1.3.78.26 1.646.347 2.426.347.954 0 1.734-.087 2.167-.174 5.027-.867 9.446-3.206 11.267-5.286 1.473-1.733 1.126-4.16-2.947-6.067-3.467-1.733-7.887-2.08-11.18-2.08-2.167 0-3.813.174-4.42.26-.433.087-3.207.434-6.24.434h-.693c-1.04 0-1.994-.087-3.034-.261-2.773-.346-5.98-2.686-6.933-6.067a12.367 12.367 0 0 1-.173-.952v-.52c-.087-2.774-.26-6.674 1.646-9.36 3.814-5.287 11.614-7.627 19.587-7.627 11.093 0 22.62 4.68 24.18 12.827.086 0 .693 3.726-.26 7.886M23.791 3.207a22.726 22.726 0 0 1 20.02 8.493c-5.113-3.033-11.613-4.853-18.633-4.68-6.327.087-12.134 1.734-16.987 4.42 3.813-4.506 9.273-7.626 15.6-8.233m28.08 20.28c-.52-5.027-2.427-9.793-5.633-13.78A25.978 25.978 0 0 0 25.958 0c-.867 0-1.647 0-2.514.087-6.846.693-13.086 3.987-17.506 9.36C1.518 14.82-.562 21.58.13 28.427 1.344 41.947 12.698 52 25.958 52c.866 0 1.646 0 2.513-.086 6.933-.695 13.173-3.987 17.593-9.361a26.535 26.535 0 0 0 5.807-19.066"></path></svg></g><path fill="#ffffff" fill-rule="nonzero" d="M4.57 3.50L4.57 3.50Q4.29 3.61 4.03 3.61L4.03 3.61Q3.38 3.61 3.13 2.83L3.13 2.83Q3.06 2.63 3.04 2.49Q3.02 2.35 3.02 2.24L3.02 2.24Q3.02 1.60 3.75 1.29L3.75 1.29Q5.18 0.71 6.67 0.36Q8.16 0 9.68 0L9.68 0Q10.39 0 11.08 0.15Q11.77 0.30 12.32 0.67Q12.87 1.04 13.21 1.65Q13.55 2.27 13.55 3.20L13.55 3.20Q13.55 3.86 13.28 4.46Q13.02 5.06 12.58 5.61Q12.14 6.15 11.58 6.64Q11.02 7.14 10.43 7.55Q9.84 7.96 9.27 8.29Q8.70 8.63 8.23 8.87L8.23 8.87Q7.83 9.11 7.83 9.35L7.83 9.35Q7.83 9.64 8.26 9.80L8.26 9.80Q9.72 10.32 11.25 10.77Q12.78 11.22 14.36 11.79L14.36 11.79Q15.09 12.06 15.09 12.63L15.09 12.63Q15.09 12.91 14.94 13.19Q14.78 13.47 14.59 13.70L14.59 13.70Q14.19 14.29 13.60 14.29L13.60 14.29Q13.40 14.29 13.10 14.21L13.10 14.21Q12.21 13.86 11.19 13.49Q10.17 13.13 9.11 12.76Q8.05 12.40 7.03 12.07Q6.00 11.73 5.13 11.46L5.13 11.46Q4.81 11.38 4.70 11.38L4.70 11.38Q4.59 11.38 4.53 11.42Q4.47 11.47 4.47 11.62L4.47 11.62Q4.47 11.66 4.48 11.72Q4.50 11.79 4.50 11.85L4.50 11.85Q4.54 12.06 4.60 12.39Q4.66 12.73 4.72 13.08Q4.79 13.44 4.83 13.76Q4.87 14.08 4.87 14.29L4.87 14.29Q4.87 15.05 4.03 15.35L4.03 15.35L3.42 15.54Q3.28 15.59 3.17 15.61Q3.06 15.63 2.94 15.63L2.94 15.63Q2.19 15.63 2.06 14.70L2.06 14.70Q1.74 12.21 1.22 9.79Q0.71 7.37 0.05 4.96L0.05 4.96Q0.01 4.83 0.01 4.72Q0 4.62 0 4.54L0 4.54Q0 3.81 0.78 3.55L0.78 3.55Q1.07 3.46 1.25 3.40Q1.44 3.35 1.55 3.32Q1.67 3.28 1.73 3.27Q1.79 3.25 1.85 3.25L1.85 3.25Q2.58 3.25 2.80 4.09L2.80 4.09Q3.09 5.15 3.34 6.15Q3.60 7.15 3.80 8.12L3.80 8.12Q3.91 8.60 4.20 8.60L4.20 8.60Q4.28 8.60 4.39 8.57Q4.50 8.53 4.65 8.46L4.65 8.46Q5.09 8.23 5.71 7.89Q6.33 7.55 7.01 7.13Q7.68 6.71 8.35 6.25Q9.01 5.78 9.54 5.32Q10.06 4.85 10.39 4.40Q10.72 3.95 10.72 3.55L10.72 3.55Q10.72 3.31 10.64 3.10Q10.57 2.90 10.36 2.75Q10.16 2.60 9.81 2.52Q9.46 2.43 8.93 2.43L8.93 2.43Q8.41 2.43 7.84 2.52Q7.27 2.61 6.71 2.76Q6.15 2.91 5.61 3.10Q5.06 3.29 4.57 3.50Z" transform="translate(41.223, 74.5)"></path></svg>