<?xml version="1.0" standalone="no"?>
<svg xmlns="http://www.w3.org/2000/svg" viewBox="0 0 99.379 114.752" width="99.379" height="114.752"><polygon fill="#5f3ed7" points="99.379,28.688 99.379,86.064 49.6895,114.752 0,86.064 0,28.688 49.6895,0"></polygon><g fill="white" color="white" transform="translate(27.689500000000002 22.5) scale(0.8461539)"><svg width="52.0" height="52.0" x="0.0" y="0.0" viewBox="0 0 52 52"><path fill="currentColor" fill-rule="evenodd" d="M48.231 30.94l-.26 1.04c0 .173-.087.173-.087.173v-.173c.867-7.973-10.4-12.566-22.966-12.566-2.514 0-5.2.173-7.714.606-3.986.607-7.02 1.56-9.186 2.6.26 2.774 2.773 3.12 4.333 3.12h.52c2.253-.086 5.027-.52 6.413-.693.174 0 .434-.087.52-.087 1.56-.173 3.207-.346 4.767-.346 7.02 0 14.04 1.905 17.767 6.153 3.639 4.16 2.426 9.013-2.514 13.26-4.506 3.813-10.314 4.592-13.347 4.767h-.693c-3.293 0-6.153-.954-6.673-1.214-4.853-1.906-4.16-5.113-1.473-6.846 2.166-1.387 4.853-1.994 7.366-1.994 4.506 0 8.494 1.907 8.06 4.42-.26 1.734-2.34 2.687-3.987 2.687-.433 0-.867-.087-1.213-.261l-.087-.086c-.086-.173-.173-.26-.606-.433a5.446 5.446 0 0 0-1.647-.26c-1.56 0-3.206.607-3.64 1.473-.26.606.26 1.04.954 1.3.78.26 1.646.347 2.426.347.954 0 1.734-.087 2.167-.174 5.027-.867 9.446-3.206 11.267-5.286 1.473-1.733 1.126-4.16-2.947-6.067-3.467-1.733-7.887-2.08-11.18-2.08-2.167 0-3.813.174-4.42.26-.433.087-3.207.434-6.24.434h-.693c-1.04 0-1.994-.087-3.034-.261-2.773-.346-5.98-2.686-6.933-6.067a12.367 12.367 0 0 1-.173-.952v-.52c-.087-2.774-.26-6.674 1.646-9.36 3.814-5.287 11.614-7.627 19.587-7.627 11.093 0 22.62 4.68 24.18 12.827.086 0 .693 3.726-.26 7.886M23.791 3.207a22.726 22.726 0 0 1 20.02 8.493c-5.113-3.033-11.613-4.853-18.633-4.68-6.327.087-12.134 1.734-16.987 4.42 3.813-4.506 9.273-7.626 15.6-8.233m28.08 20.28c-.52-5.027-2.427-9.793-5.633-13.78A25.978 25.978 0 0 0 25.958 0c-.867 0-1.647 0-2.514.087-6.846.693-13.086 3.987-17.506 9.36C1.518 14.82-.562 21.58.13 28.427 1.344 41.947 12.698 52 25.958 52c.866 0 1.646 0 2.513-.086 6.933-.695 13.173-3.987 17.593-9.361a26.535 26.535 0 0 0 5.807-19.066"></path></svg></g><path fill="white" fill-rule="nonzero" d="M9.07 10.30Q10.05 11.96 11.05 13.23Q12.04 14.50 13.66 16.35L13.66 16.35Q13.86 16.55 13.86 16.80L13.86 16.80Q13.86 17.19 13.43 17.47Q12.99 17.75 12.38 17.75L12.38 17.75Q11.51 17.75 10.50 17.02L10.50 17.02Q9.60 16.38 8.90 15.32Q8.20 14.25 7.28 12.54L7.28 12.54Q6.55 11.23 6.41 11.00L6.41 11.00Q5.32 11.45 3.00 11.56L3.00 11.56Q3.00 12.52 3.16 14.14L3.16 14.14Q3.33 15.82 3.33 16.58L3.33 16.58Q3.33 17.08 2.84 17.42Q2.35 17.75 1.74 17.75L1.74 17.75Q1.01 17.75 0.62 17.16L0.62 17.16Q0.22 16.38 0.11 15.29Q0 14.20 0 12.68L0 12.68Q0 11.09 0.20 9.07L0.20 9.07Q0.36 6.83 0.36 5.77L0.36 5.77Q0.36 4.90 0.20 3.44L0.20 3.44Q0.17 3.19 0.11 2.58Q0.06 1.96 0.06 1.46L0.06 1.46Q0.06 1.06 0.35 0.77Q0.64 0.48 0.98 0.36L0.98 0.36Q3.25 0 5.40 0L5.40 0Q9.07 0 11.48 1.37Q13.89 2.74 13.89 5.54L13.89 5.54Q13.89 6.41 13.51 7.21Q13.13 8.01 12.49 8.54L12.49 8.54Q10.78 9.86 9.07 10.30L9.07 10.30ZM10.95 5.46Q10.95 4.12 9.52 3.26Q8.09 2.41 5.46 2.41L5.46 2.41Q4.28 2.41 3.14 2.69L3.14 2.69L3.16 4.12Q3.16 5.35 3.08 6.52L3.08 6.52Q3.00 7.70 3.00 9.04L3.00 9.04Q3.47 8.93 4.00 8.89Q4.54 8.85 4.70 8.82L4.70 8.82Q5.94 8.71 6.61 8.54L6.61 8.54Q7.87 8.15 8.69 7.83Q9.52 7.50 10.23 6.90Q10.95 6.30 10.95 5.46L10.95 5.46Z" transform="translate(42.746, 74.5)"></path></svg>